<svg width="384" height="48" viewBox="0 0 384 48" fill="none" xmlns="http://www.w3.org/2000/svg">
<path d="M33.46 33.75C35.5225 33.75 36.3663 35.625 36.3663 36.75C36.3663 38.9062 30.085 45.0938 20.8975 45.0938C8.05376 45.0938 0.366257 34.0312 0.366257 24.0938C0.366257 14.3438 7.86626 3.09375 20.8975 3.09375C30.2725 3.09375 36.3663 9.375 36.3663 11.4375C36.3663 12.5625 35.4288 14.4375 33.3663 14.4375C30.3663 14.4375 29.0538 9.09375 20.8975 9.09375C11.71 9.09375 6.36626 17.0625 6.36626 24.0938C6.36626 31.0312 11.6163 39.0938 20.8975 39.0938C29.1475 39 30.46 33.75 33.46 33.75ZM59.275 29.0625L67.3375 40.3125C68.275 41.625 67.9 43.5 66.5875 44.5312C66.025 44.9062 65.4625 45.0938 64.9 45.0938C63.9625 45.0938 63.025 44.625 62.3688 43.7812L52.6188 30H43.9V42C43.9 43.6875 42.4938 45 40.9 45C39.2125 45 37.9 43.6875 37.9 42V6C37.9 4.40625 39.2125 3 40.9 3H54.4C61.8063 3 67.9 9.09375 67.9 16.5C67.9 22.2188 64.3375 27.0938 59.275 29.0625ZM43.9 9.09375V24H54.4C58.525 24 61.9 20.7188 61.9 16.5938C61.9 12.375 58.525 9.09375 54.4 9.09375H43.9ZM99.34 42C99.34 43.6875 97.9338 45 96.34 45H72.34C70.6525 45 69.34 43.6875 69.34 42V6C69.34 4.40625 70.6525 3.09375 72.34 3.09375H96.34C97.9338 3.09375 99.34 4.40625 99.34 6.09375C99.34 7.6875 97.9338 9.09375 96.34 9.09375H75.34V21.0938H90.34C91.9338 21.0938 93.34 22.4062 93.34 24C93.34 25.6875 91.9338 27.0938 90.34 27.0938H75.34V39.0938H96.34C97.9338 39 99.34 40.4062 99.34 42ZM136.499 40.875C137.155 42.375 136.405 44.1562 134.905 44.8125C134.53 45 134.155 45.0938 133.78 45.0938C132.561 45.0938 131.436 44.3438 130.968 43.2188L127.968 36.0938H109.499L106.499 43.2188C105.843 44.7188 104.155 45.4688 102.561 44.8125C101.061 44.1562 100.311 42.4688 100.968 40.875L115.968 4.875C116.436 3.75 117.561 3.09375 118.78 3.09375C119.905 3.09375 121.03 3.75 121.499 4.875L136.499 40.875ZM111.936 30H125.53L118.78 13.875L111.936 30ZM174.22 6.09375C174.22 7.6875 172.814 9.09375 171.22 9.09375H159.22V42.0938C159.22 43.6875 157.814 45 156.22 45C154.533 45 153.22 43.6875 153.22 42.0938V9.09375H141.22C139.533 9.09375 138.22 7.6875 138.22 6.09375C138.22 4.40625 139.533 3.09375 141.22 3.09375H171.22C172.814 3.09375 174.22 4.40625 174.22 6.09375ZM196.66 3.09375C208.191 3.09375 217.66 12.4688 217.66 24.0938C217.66 35.625 208.191 45.0938 196.66 45.0938C185.035 45.0938 175.66 35.625 175.66 24.0938C175.66 12.4688 185.035 3.09375 196.66 3.09375ZM196.66 39C204.91 39 211.66 32.25 211.66 24C211.66 15.8438 204.91 9.09375 196.66 9.09375C188.316 9.09375 181.66 15.75 181.66 24C181.66 32.3438 188.316 39 196.66 39ZM240.475 29.0625L248.538 40.3125C249.475 41.625 249.1 43.5 247.788 44.5312C247.225 44.9062 246.663 45.0938 246.1 45.0938C245.163 45.0938 244.225 44.625 243.569 43.7812L233.819 30H225.1V42C225.1 43.6875 223.694 45 222.1 45C220.413 45 219.1 43.6875 219.1 42V6C219.1 4.40625 220.413 3 222.1 3H235.6C243.006 3 249.1 9.09375 249.1 16.5C249.1 22.2188 245.538 27.0938 240.475 29.0625ZM225.1 9.09375V24H235.6C239.725 24 243.1 20.7188 243.1 16.5938C243.1 12.375 239.725 9.09375 235.6 9.09375H225.1ZM283.259 35.625C282.696 39 280.915 41.7188 278.009 43.3125C275.665 44.625 272.946 45.0938 270.134 45.0938C264.321 45.0938 258.321 42.9375 255.321 41.7188C253.821 41.1562 253.071 39.375 253.728 37.875C254.384 36.2812 256.071 35.5312 257.665 36.1875C264.884 39.1875 271.728 39.8438 275.103 38.0625C276.415 37.3125 277.071 36.1875 277.353 34.5938C278.103 30.5625 275.665 29.25 267.696 26.9062C261.04 25.0312 251.946 22.4062 253.728 12.5625C254.196 9.5625 255.884 6.9375 258.509 5.34375C262.728 2.53125 269.29 2.34375 277.821 4.59375C279.415 5.0625 280.353 6.65625 279.978 8.25C279.509 9.84375 277.915 10.7812 276.321 10.4062C267.79 8.15625 263.665 9.09375 261.696 10.3125C260.571 11.1562 259.821 12.1875 259.634 13.5C258.884 17.5312 261.321 18.8438 269.29 21.1875C275.946 23.0625 285.04 25.6875 283.259 35.625Z" fill="white"/>
<path d="M315.06 23.5C316.435 23.5 316.998 24.75 316.998 25.5C316.998 26.9375 312.81 31.0625 306.685 31.0625C298.123 31.0625 292.998 23.6875 292.998 17.0625C292.998 10.5625 297.998 3.0625 306.685 3.0625C312.935 3.0625 316.998 7.25 316.998 8.625C316.998 9.375 316.373 10.625 314.998 10.625C312.998 10.625 312.123 7.0625 306.685 7.0625C300.56 7.0625 296.998 12.375 296.998 17.0625C296.998 21.6875 300.498 27.0625 306.685 27.0625C312.185 27 313.06 23.5 315.06 23.5ZM338.02 29C338.02 30.125 337.083 31 336.02 31H322.02C320.895 31 320.02 30.125 320.02 29V5C320.02 3.9375 320.895 3.0625 322.02 3.0625C323.083 3.0625 324.02 3.9375 324.02 5.0625V27.0625H336.02C337.083 27 338.02 27.9375 338.02 29ZM362.98 5.0625V19.125C362.98 25.625 357.542 31.0625 350.98 31.0625C344.355 31.0625 338.98 25.6875 338.98 19.125V5.0625C338.98 3.9375 339.855 3.0625 340.98 3.0625C342.042 3.0625 342.98 3.9375 342.98 5.0625V19.125C342.98 23.5 346.542 27.0625 350.98 27.0625C355.355 27.0625 358.98 23.5 358.98 19.125V5.0625C358.98 3.9375 359.855 3.0625 360.98 3.0625C362.042 3.0625 362.98 3.9375 362.98 5.0625ZM380.003 16.1875C382.315 17.5625 383.94 20.125 383.94 23C383.94 27.4375 380.315 31 375.94 31H365.94C364.815 31 363.94 30.125 363.94 29V5C363.94 3.9375 364.815 3 365.94 3H373.94C378.315 3 381.94 6.625 381.94 11C381.94 13 381.19 14.8125 380.003 16.1875ZM367.94 7.0625V15.0625H373.94C376.128 15.0625 377.94 13.25 377.94 11.0625C377.94 8.8125 376.128 7.0625 373.94 7.0625H367.94ZM375.94 27C378.128 27 379.94 25.25 379.94 23C379.94 20.8125 378.128 19 375.94 19H367.94V27H375.94Z" fill="#FC3F1D"/>
<rect x="293" y="37" width="91" height="8" rx="4" fill="#FC3F1D"/>
</svg>
